HIERARCHY
ROOT Hips
{
	OFFSET 0.00000 0.00000 0.00000
	CHANNELS 6 Xposition Yposition Zposition Zrotation Yrotation Xrotation 
	JOINT LHipJoint
	{
		OFFSET 0 0 0
		CHANNELS 3 Zrotation Yrotation Xrotation
		JOINT LeftHip
		{
			OFFSET 1.66553 -1.82942 0.76350
			CHANNELS 3 Zrotation Yrotation Xrotation
			JOINT LeftKnee
			{
				OFFSET 2.41740 -6.64177 0.00000
				CHANNELS 3 Zrotation Yrotation Xrotation
				JOINT LeftAnkle
				{
					OFFSET 2.71614 -7.46254 0.00000
					CHANNELS 3 Zrotation Yrotation Xrotation
					JOINT LeftToe
					{
						OFFSET 0.08005 -0.21993 1.82495
						CHANNELS 3 Zrotation Yrotation Xrotation
						End Site
						{
							OFFSET 0.00000 -0.00000 0.93441
						}
					}
				}
			}
		}
	}
	JOINT RHipJoint
	{
		OFFSET 0 0 0
		CHANNELS 3 Zrotation Yrotation Xrotation
		JOINT RightHip
		{
			OFFSET -1.63725 -1.82942 0.76350
			CHANNELS 3 Zrotation Yrotation Xrotation
			JOINT RightKnee
			{
				OFFSET -2.40538 -6.60872 0.00000
				CHANNELS 3 Zrotation Yrotation Xrotation
				JOINT RightAnkle
				{
					OFFSET -2.73312 -7.50919 0.00000
					CHANNELS 3 Zrotation Yrotation Xrotation
					JOINT RightToe
					{
						OFFSET -0.15567 -0.42769 1.93504
						CHANNELS 3 Zrotation Yrotation Xrotation
						End Site
						{
							OFFSET -0.00000 -0.00000 1.00100
						}
					}
				}
			}
		}
	}
	JOINT lowerback
	{
		OFFSET 0 0 0
		CHANNELS 3 Zrotation Yrotation Xrotation
		JOINT Chest
		{
			OFFSET 0.00326 2.30118 -0.13017
			CHANNELS 3 Zrotation Yrotation Xrotation
			JOINT Chest2
			{
				OFFSET 0.02887 2.30677 0.00834
				CHANNELS 3 Zrotation Yrotation Xrotation
				JOINT lowerneck
				{
					OFFSET 0 0 0
					CHANNELS 3 Zrotation Yrotation Xrotation
					JOINT Neck
					{
						OFFSET 0.12946 1.68326 0.00713
						CHANNELS 3 Zrotation Yrotation Xrotation
						JOINT Head
						{
							OFFSET -0.24364 1.67243 -0.16079
							CHANNELS 3 Zrotation Yrotation Xrotation
							End Site
							{
								OFFSET -0.09229 1.70819 -0.06383
							}
						}
					}
				}
				JOINT LeftCollar
				{
					OFFSET 0 0 0
					CHANNELS 3 Zrotation Yrotation Xrotation
					JOINT LeftShoulder
					{
						OFFSET 3.28104 0.69567 -0.00556
CHANNELS 3 Zrotation Xrotation Yrotation
						JOINT LeftElbow
						{
OFFSET 0 -5.707060 -0.000000
CHANNELS 3 Zrotation Xrotation Yrotation
							JOINT LeftWrist
							{
OFFSET 0 -3.332430 0.000000
CHANNELS 3 Zrotation Xrotation Yrotation
								JOINT lhand
								{
									OFFSET 0 0 0
CHANNELS 3 Zrotation Xrotation Yrotation
									JOINT LFingers
									{
OFFSET 0 -0.792690 0.000000
CHANNELS 3 Zrotation Xrotation Yrotation
										End Site
										{
OFFSET 0 -0.639090 0.000000
										}
									}
								}
								JOINT LThumb
								{
OFFSET 0 0.000000 0.000000
CHANNELS 3 Zrotation Xrotation Yrotation
									End Site
									{
OFFSET 0 -0.648840 0.648840
									}
								}
							}
						}
					}
				}
				JOINT RightCollar
				{
					OFFSET 0 0 0
					CHANNELS 3 Zrotation Yrotation Xrotation
					JOINT RightShoulder
					{
						OFFSET -3.40955 0.64424 0.14010
CHANNELS 3 Zrotation Xrotation Yrotation
						JOINT RightElbow
						{
OFFSET 0 -5.881760 -0.000000
CHANNELS 3 Zrotation Xrotation Yrotation
							JOINT RightWrist
							{
OFFSET 0 -3.281560 0.000000
CHANNELS 3 Zrotation Xrotation Yrotation
								JOINT rhand
								{
									OFFSET 0 0 0
CHANNELS 3 Zrotation Xrotation Yrotation
									JOINT RFingers
									{
OFFSET 0 -0.863130 0.000000
CHANNELS 3 Zrotation Xrotation Yrotation
										End Site
										{
OFFSET 0 -0.695870 0.000000
										}
									}
								}
								JOINT RThumb
								{
OFFSET 0 0.000000 0.000000
CHANNELS 3 Zrotation Xrotation Yrotation
									End Site
									{
OFFSET 0 -0.706500 0.706500
									}
								}
							}
						}
					}
				}
			}
		}
	}
}
MOTION
Frames: 5
Frame Time: 0.008333333333333333
18.114300 16.804100 -26.146400 0.776800 -18.599000 10.420400 0.000000 0.000000 0.000000 -4.754500 -6.251300 -29.263400 5.577800 14.006400 43.263000 0.681200 -15.360800 -17.059900 1.632500 -8.054600 -22.879900 0.000000 0.000000 0.000000 4.248400 9.422300 -29.730600 -6.627800 -15.010300 47.452100 -2.055600 5.124400 -25.988700 -2.490800 9.821100 -28.399300 -0.840700 -2.315000 12.801600 1.044200 -3.127100 -0.846500 2.191300 -1.456800 -7.988700 17.149500 11.338400 5.795900 -16.797000 16.851800 5.975800 -7.300900 8.604600 3.729000 -0.000000 0.000000 0.000000 4.465600 -19.051100 -37.503900 10.258600 -17.143100 1.550300 21.381100 16.052200 -20.686800 0.000000 0.000000 0.000000 -7.125000 0.000000 0.000000 -7.335700 51.907200 1.253200 -0.000000 0.000000 0.000000 -7.689400 -11.418500 40.085400 -19.534000 -30.076800 -5.295800 -23.569800 -9.686000 -17.842900 0.000000 0.000000 0.000000 7.125000 0.000000 -0.000000 2.911900 10.648700 2.326700
17.929499 17.199971 -25.622425 0.735514 -18.094479 7.626743 0.000000 0.000000 0.000000 -5.932249 -5.019704 -20.471493 3.944776 12.086334 36.038497 0.442923 -13.141303 -14.052954 2.706074 -10.203031 -29.637015 0.000000 0.000000 0.000000 6.060597 7.169186 -21.799365 -5.264940 -13.675918 41.954802 -1.495199 5.011766 -22.027173 -2.160779 9.193259 -26.401806 0.090886 -1.803793 9.530228 0.985933 -2.330401 -1.301479 1.335656 -1.126032 -6.680657 17.210325 11.344974 5.516731 -15.548287 16.916842 7.679452 -6.861886 8.634310 4.190386 0.000000 0.000000 0.000000 5.612504 -3.506793 -35.532736 15.362804 -24.647724 3.376574 19.741136 -0.613737 -19.827320 0.000000 0.000000 0.000000 -7.125000 0.000000 0.000000 -8.710397 50.726258 1.280752 0.000000 0.000000 0.000000 -8.436457 -3.267466 27.811016 -12.241443 -20.165449 -2.185049 -15.290758 9.758354 -17.308230 0.000000 0.000000 0.000000 7.125000 0.000000 0.000000 8.340424 12.218966 6.459768
17.787575 17.558628 -25.252425 0.427714 -17.503256 7.026231 0.000000 0.000000 0.000000 -6.355374 -4.847280 -13.469385 2.334191 9.529437 27.466359 0.243536 -9.997170 -10.518862 3.353602 -11.246553 -33.116084 0.000000 0.000000 0.000000 7.444934 5.431318 -16.042066 -3.742046 -11.808788 35.059132 -1.004620 4.046168 -18.021333 -2.304390 9.473089 -27.286882 0.289524 -1.657875 5.905363 1.343638 -2.124288 -1.998847 1.453917 -1.037109 -5.347179 18.082651 11.459909 4.600911 -15.475290 17.119869 8.965189 -6.862539 8.720209 4.835270 0.000000 0.000000 0.000000 4.323050 10.695060 -26.881072 23.212084 -34.319684 7.257615 17.489544 -5.400942 -26.175648 0.000000 0.000000 0.000000 -7.125000 0.000000 0.000000 -13.636581 56.720375 3.970018 0.000000 0.000000 0.000000 -6.676696 4.655870 10.472592 -10.875735 -18.097489 -1.737089 -18.085045 8.584903 -17.074808 0.000000 0.000000 0.000000 7.125000 0.000000 0.000000 6.484457 12.159505 5.006069
17.725238 17.627240 -25.119396 0.407201 -17.401961 7.500474 0.000000 0.000000 0.000000 -6.872352 -5.979119 -9.401003 1.505117 7.748585 21.952960 0.500470 -6.551850 -12.721741 4.130112 -12.331258 -36.914484 0.000000 0.000000 0.000000 8.405014 5.486821 -12.176069 -2.612035 -10.038734 29.102317 -1.110318 1.584840 -19.453508 -1.624938 8.034607 -22.820496 0.216291 -1.592265 3.505949 1.350556 -2.059809 -2.995019 1.436931 -1.005927 -5.020247 17.963375 11.869582 5.481649 -15.717818 17.664494 7.022702 -6.947554 9.027142 4.210090 0.000000 0.000000 0.000000 1.215824 15.624849 -13.129907 23.722193 -34.868898 7.547211 20.301290 -13.712558 -29.827536 0.000000 0.000000 0.000000 -7.125000 0.000000 0.000000 -12.785540 60.965512 5.020681 0.000000 0.000000 0.000000 -4.132365 6.850162 -4.941636 -10.970706 -18.243334 -1.766759 -15.179679 9.402787 -17.846268 0.000000 0.000000 0.000000 7.125000 0.000000 0.000000 8.428124 11.682732 6.620662
17.643246 17.519720 -25.195115 0.962167 -18.592802 7.145131 0.000000 0.000000 0.000000 -7.372338 -6.268972 -6.946144 1.133738 6.762570 19.013704 0.626520 -4.183472 -14.118027 4.894953 -13.264458 -40.366681 0.000000 0.000000 0.000000 8.382057 6.383544 -11.371808 -2.438467 -9.725141 28.091213 -1.488549 0.525742 -22.917947 -1.634351 8.058760 -22.892626 -0.132421 -1.239269 2.624746 1.129949 -1.620598 -3.621352 1.358422 -0.778766 -5.178397 18.549113 12.150572 6.410293 -17.425470 18.285781 5.984747 -7.586565 9.375603 4.073506 0.000000 0.000000 0.000000 6.722430 13.122720 -4.474042 19.946872 -30.578253 5.504343 25.960608 -17.205927 -34.540400 0.000000 0.000000 0.000000 -7.125000 0.000000 0.000000 -9.591854 67.185002 5.141464 0.000000 0.000000 0.000000 -9.405730 2.391626 -11.508137 -11.015448 -18.311882 -1.780755 -4.957059 16.833345 -22.392322 0.000000 0.000000 0.000000 7.125000 0.000000 0.000000 14.965156 8.117087 13.171749
